<svg width="741" height="182" viewBox="0 0 741 182" fill="none" xmlns="http://www.w3.org/2000/svg">
<path d="M55.0833 181.185C54.0465 181.291 53.0257 181.344 52.0367 181.344H0.00532212V169.099H52.0367C52.9938 169.099 54.0146 169.009 55.0833 168.839V181.18V181.185ZM57.3909 127.021C57.3909 139.681 47.092 149.974 34.4377 149.974H0.00532212V137.73H15.3074V116.302H0.00532212V104.058H34.4377C47.0973 104.058 57.3909 114.356 57.3909 127.011V127.021ZM45.146 127.021C45.146 121.114 40.3395 116.308 34.4324 116.308H26.6059V137.735H34.4324C40.3395 137.735 45.146 132.928 45.146 127.021ZM91.8233 127.787C91.8233 103.632 71.2362 91.5521 60.3524 88.5427C55.8862 87.3092 54.3602 81.7477 57.5664 78.4034C58.2522 77.6909 59.0072 76.9359 59.8154 76.1331C65.898 70.093 74.2243 61.8199 74.2243 45.9116C74.2243 42.4663 73.1715 12.2449 36.7293 12.2449H0V0H36.7293C75.9895 0 86.4638 28.8603 86.4638 45.9116C86.4638 62.963 79.169 73.3523 72.81 80.3175C86.8201 87.2295 104.063 102.335 104.063 127.782C104.063 153.228 83.7734 171.923 65.1802 178.75V165.436C77.9727 159.114 91.818 145.152 91.818 127.787H91.8233ZM18.37 39.7919H30.6095C36.5166 39.7919 41.3231 44.5984 41.3231 50.5055H53.568C53.568 37.8459 43.2691 27.5523 30.6148 27.5523H18.3753V39.7972L18.37 39.7919Z" fill="white"/>
<path d="M201.394 134.252H168.249V51.3881H199.842C217.367 51.3881 226.666 61.0437 226.666 72.7303C226.666 82.7474 220.583 88.8246 212.597 91.6851C221.418 93.2324 228.575 102.058 228.575 111.953C228.575 124.592 218.324 134.247 201.389 134.247L201.394 134.252ZM198.651 62.4792H181.839V86.2034H198.651C207.472 86.2034 212.836 82.0296 212.836 74.3998C212.836 66.77 207.472 62.4792 198.651 62.4792ZM199.725 97.2892H181.839V123.161H200.198C209.38 123.161 214.985 118.509 214.985 110.523C214.985 102.537 208.785 97.2892 199.725 97.2892ZM269.829 67.4825C280.914 67.4825 288.55 72.7303 292.601 78.0951V68.5565H306.313V134.252H292.601V124.475C288.427 130.079 280.558 135.326 269.589 135.326C252.538 135.326 238.831 121.375 238.831 101.107C238.831 80.8386 252.543 67.4825 269.829 67.4825ZM272.689 79.2861C262.555 79.2861 252.777 86.9158 252.777 101.107C252.777 115.298 262.555 123.523 272.689 123.523C282.823 123.523 292.601 115.537 292.601 101.346C292.601 87.1551 282.945 79.2914 272.689 79.2914V79.2861ZM350.784 67.4825C359.366 67.4825 368.431 71.534 373.434 77.7335V46.0181H387.147V134.247H373.434V124.352C369.26 130.313 361.391 135.321 350.662 135.321C333.377 135.321 319.664 121.37 319.664 101.101C319.664 80.8333 333.376 67.4772 350.784 67.4772V67.4825ZM353.528 79.2861C343.394 79.2861 333.616 86.9158 333.616 101.107C333.616 115.298 343.394 123.523 353.528 123.523C363.662 123.523 373.434 115.537 373.434 101.346C373.434 87.1551 363.779 79.2914 353.528 79.2914V79.2861ZM428.193 67.4825C436.775 67.4825 445.84 71.534 450.849 77.7335V46.0181H464.561V134.247H450.849V124.352C446.675 130.313 438.806 135.321 428.076 135.321C410.786 135.321 397.079 121.37 397.079 101.101C397.079 80.8333 410.791 67.4772 428.199 67.4772L428.193 67.4825ZM430.937 79.2861C420.803 79.2861 411.025 86.9158 411.025 101.107C411.025 115.298 420.803 123.523 430.937 123.523C441.071 123.523 450.849 115.537 450.849 101.346C450.849 87.1551 441.188 79.2914 430.937 79.2914V79.2861ZM509.117 135.326C490.401 135.326 476.21 121.976 476.21 101.346C476.21 80.7163 490.997 67.4878 509.712 67.4878C528.428 67.4878 543.214 80.7216 543.214 101.346C543.214 121.97 527.955 135.326 509.117 135.326ZM509.117 123.523C519.251 123.523 529.268 116.249 529.268 101.346C529.268 86.4426 519.612 79.2914 509.473 79.2914C499.334 79.2914 490.04 86.4426 490.04 101.346C490.04 116.249 498.86 123.523 509.117 123.523ZM603.306 97.5284C603.306 85.4856 596.75 79.2861 586.856 79.2861C576.961 79.2861 570.283 85.4856 570.283 97.5284V134.252H556.693V68.5565H570.283V76.0693C574.696 70.7045 581.969 67.4825 589.838 67.4825C605.215 67.4825 616.785 77.138 616.785 95.5027V134.252H603.311V97.5284H603.306ZM684.618 119.466H653.381L648.372 134.252H627.03L657.315 50.5534H680.923L711.208 134.252H689.626L684.618 119.466ZM668.997 73.0865L658.74 103.728H679.365L668.991 73.0865H668.997ZM720.385 50.5534H740.77V134.252H720.385V50.5534Z" fill="white"/>
</svg>
