<svg width="741" height="182" viewBox="0 0 741 182" fill="none" xmlns="http://www.w3.org/2000/svg">
<path d="M438.829 138.721C444.69 138.721 449.441 143.468 449.441 149.326V167H357.476V15H385.773V138.721H438.829ZM2 39.7442H41.5269V167H69.8235V39.7442H108.112V15H2V39.7442ZM120.492 167H226.605V142.256H120.492V167ZM120.492 15H226.605V39.7442H120.492V15ZM201.845 103.372H120.492V78.6279H201.845V103.372ZM238.984 15V39.7442H345.097V15H238.984ZM238.984 78.6279H320.337V103.372H267.281V167H238.984V78.6279ZM710.703 15V130.071L644.227 15H604.591V167H632.888V51.9289L699.363 167H728.389C734.25 167 739 162.253 739 156.395V15H710.703ZM516.164 15C474.165 15 440.117 49.0268 440.117 91C440.117 99.0136 441.362 106.734 443.661 113.987H474.331C470.564 107.165 468.413 99.3282 468.413 91C468.413 64.6863 489.834 43.2791 516.164 43.2791C542.494 43.2791 563.915 64.6863 563.915 91C563.915 117.314 542.494 138.721 516.164 138.721V138.732H456.989C470.928 155.971 492.257 167 516.164 167C558.163 167 592.211 132.973 592.211 91C592.211 49.0268 558.163 15 516.164 15Z" fill="white"/>
</svg>
